<svg width="34" height="34" viewBox="0 0 34 34" fill="none" xmlns="http://www.w3.org/2000/svg">
<path d="M13.105 25.3333H20.8933H13.105ZM17 2V3.66667V2ZM27.6067 6.39333L26.4283 7.57167L27.6067 6.39333ZM32 17H30.3333H32ZM3.66667 17H2H3.66667ZM7.57167 7.57167L6.39333 6.39333L7.57167 7.57167ZM11.1067 22.8933C9.94145 21.7278 9.14799 20.2429 8.82663 18.6265C8.50526 17.01 8.67042 15.3346 9.30121 13.812C9.93201 12.2894 11.0001 10.9881 12.3705 10.0725C13.7408 9.15691 15.3519 8.66822 17 8.66822C18.6481 8.66822 20.2592 9.15691 21.6295 10.0725C22.9999 10.9881 24.068 12.2894 24.6988 13.812C25.3296 15.3346 25.4947 17.01 25.1734 18.6265C24.852 20.2429 24.0586 21.7278 22.8933 22.8933L21.98 23.805C21.4578 24.3272 21.0437 24.9472 20.7611 25.6296C20.4786 26.3119 20.3332 27.0432 20.3333 27.7817V28.6667C20.3333 29.5507 19.9821 30.3986 19.357 31.0237C18.7319 31.6488 17.8841 32 17 32C16.1159 32 15.2681 31.6488 14.643 31.0237C14.0179 30.3986 13.6667 29.5507 13.6667 28.6667V27.7817C13.6667 26.29 13.0733 24.8583 12.02 23.805L11.1067 22.8933Z" stroke="#47D878" stroke-width="3" stroke-linecap="round" stroke-linejoin="round"/>
</svg>
